<?xml version="1.0" standalone="no"?>
<!DOCTYPE svg PUBLIC "-//W3C//DTD SVG 20010904//EN"
 "http://www.w3.org/TR/2001/REC-SVG-20010904/DTD/svg10.dtd">
<svg version="1.0" xmlns="http://www.w3.org/2000/svg"
 width="500.000000pt" height="150.000000pt" viewBox="0 0 500.000000 150.000000"
 preserveAspectRatio="xMidYMid meet">

<g transform="translate(0.000000,150.000000) scale(0.100000,-0.100000)"
fill="#1f4f67" stroke="none">
<path d="M600 1300 c-213 -33 -393 -190 -453 -397 -14 -46 -14 -52 0 -57 9 -4
16 -5 17 -4 1 2 12 34 25 73 124 370 602 477 876 196 39 -41 65 -52 65 -28 0
21 -90 103 -155 142 -108 65 -253 94 -375 75z"/>
<path d="M480 1120 l0 -50 -43 0 c-53 0 -73 -19 -83 -78 -7 -42 -7 -42 -50
-42 -24 0 -44 -4 -44 -10 0 -5 20 -10 45 -10 l45 0 0 -55 0 -55 -46 0 c-27 0
-43 -4 -39 -10 3 -5 24 -10 46 -10 l39 0 0 -56 0 -57 -39 7 c-23 3 -42 2 -46
-4 -4 -6 11 -10 39 -10 40 0 46 -3 52 -24 3 -13 4 -37 2 -52 -3 -27 -6 -29
-50 -32 -60 -4 -63 -22 -4 -22 l43 0 7 -49 c8 -59 31 -82 90 -88 l45 -5 4 -47
3 -46 2 48 2 47 55 0 55 0 0 -45 c0 -25 5 -45 10 -45 6 0 10 20 10 45 l0 45
55 0 55 0 0 -45 c0 -25 5 -45 10 -45 6 0 10 20 10 45 l0 45 55 0 55 0 0 -46
c0 -27 4 -43 10 -39 6 3 10 23 10 44 0 37 1 39 41 44 54 7 77 30 85 83 6 43 7
44 45 44 21 0 41 5 44 10 4 6 -12 10 -39 10 l-46 0 0 55 0 55 45 0 c25 0 45 5
45 10 0 6 -20 10 -45 10 l-45 0 0 55 0 55 45 0 c25 0 45 5 45 10 0 6 -20 10
-45 10 l-45 0 0 55 0 55 48 1 c26 1 36 3 22 6 -66 10 -67 11 -74 57 -9 55 -29
74 -86 78 l-45 3 -3 48 c-4 59 -22 52 -22 -9 l0 -45 -52 3 -53 3 -6 50 -5 50
-5 -50 -4 -50 -52 -3 -53 -3 0 50 c0 64 -18 67 -22 4 l-3 -48 -50 0 -50 0 -3
48 c-4 63 -22 61 -22 -3z m506 -84 c11 -16 14 -73 14 -293 0 -260 -1 -274 -20
-293 -19 -19 -33 -20 -295 -20 -262 0 -276 1 -295 20 -19 19 -20 33 -20 293 0
280 2 296 40 310 8 3 138 5 288 4 258 -2 274 -3 288 -21z"/>
<path d="M442 988 c-17 -17 -17 -469 0 -486 17 -17 469 -17 486 0 17 17 17
469 0 486 -17 17 -469 17 -486 0z m468 -16 c30 -24 21 -49 -32 -90 -49 -38
-95 -42 -121 -12 -24 29 -65 26 -79 -5 -9 -21 -8 -28 7 -45 23 -25 47 -25 70
0 12 14 31 20 58 20 27 0 48 8 69 25 16 14 34 25 39 25 5 0 9 -57 9 -130 l0
-130 -54 0 c-35 0 -58 5 -66 15 -16 19 -54 19 -70 0 -17 -20 -5 -62 20 -70 21
-7 60 10 60 25 0 6 25 10 55 10 l55 0 0 -39 c0 -66 -14 -72 -154 -69 l-121 3
-3 55 c-3 68 24 120 62 120 14 0 32 9 40 22 13 19 14 25 2 43 -29 43 -94 18
-81 -32 4 -16 -1 -33 -15 -50 -16 -20 -20 -40 -20 -95 l0 -69 -37 3 -38 3 -3
59 c-3 50 0 61 17 73 38 26 21 83 -24 83 -45 0 -63 -60 -25 -80 18 -10 21 -19
18 -73 l-3 -62 -36 -3 c-66 -6 -70 7 -67 196 l3 167 58 3 c34 2 57 -1 57 -7 0
-6 9 -15 20 -21 27 -15 60 4 60 33 0 47 -43 62 -75 27 -15 -17 -29 -20 -69
-18 -51 3 -51 3 -54 40 -5 63 11 68 244 68 180 0 204 -2 224 -18z m-285 -97
c0 -23 -34 -33 -45 -14 -13 20 1 40 24 37 13 -2 21 -10 21 -23z m115 -10 c17
-20 5 -45 -20 -45 -11 0 -23 7 -26 15 -6 15 11 45 26 45 4 0 13 -7 20 -15z m7
-131 c4 -11 -1 -22 -12 -31 -16 -11 -21 -11 -33 1 -8 8 -12 22 -9 30 8 21 46
21 54 0z m-173 -39 c20 -21 10 -45 -20 -45 -19 0 -24 5 -24 24 0 13 6 27 13
29 6 3 13 6 14 6 1 1 8 -6 17 -14z m225 -59 c15 -18 3 -46 -20 -46 -22 0 -34
22 -25 45 7 19 30 19 45 1z"/>
<path d="M1495 1008 c-7 -26 -25 -114 -31 -163 -9 -66 -19 -84 -56 -97 l-31
-11 28 -14 c31 -17 31 -20 1 -178 -7 -38 -11 -73 -9 -77 2 -5 35 -8 73 -8 79
0 69 -15 98 135 l17 90 102 0 c56 0 103 2 106 5 3 3 8 24 12 47 6 39 5 43 -17
47 -13 3 -43 4 -68 4 -25 0 -60 0 -79 1 l-34 1 7 52 c4 29 12 58 18 65 7 9 42
13 114 13 56 0 105 3 107 8 3 4 8 26 12 50 l7 42 -186 0 c-141 0 -188 -3 -191
-12z"/>
<path d="M1967 1013 c-3 -5 -15 -57 -26 -117 -20 -106 -39 -146 -68 -146 -21
0 -15 -18 8 -25 20 -7 21 -12 15 -64 -4 -31 -12 -84 -20 -118 -7 -34 -10 -67
-6 -73 8 -14 127 -10 139 4 4 6 17 53 27 104 10 50 21 92 24 92 3 0 29 -47 59
-105 l54 -105 72 0 c39 0 74 3 78 6 3 4 -19 55 -48 115 l-55 109 33 16 c59 30
75 53 93 131 20 90 13 137 -24 161 -22 14 -54 17 -188 20 -90 1 -165 -1 -167
-5z m228 -150 c-9 -63 -19 -73 -71 -73 -49 0 -48 -1 -33 70 l11 50 50 0 50 0
-7 -47z"/>
<path d="M2465 928 c-29 -156 -32 -164 -66 -178 l-31 -13 27 -21 26 -21 -21
-105 c-11 -58 -20 -110 -20 -117 0 -9 46 -12 184 -12 l184 1 12 45 c6 25 9 47
6 50 -2 2 -49 4 -105 4 -55 0 -103 5 -107 10 -9 15 16 109 29 110 7 1 48 1 92
0 44 -1 85 2 92 6 6 4 13 28 15 53 l3 45 -94 2 c-51 1 -95 3 -96 5 -2 2 2 30
9 63 l12 60 104 5 105 5 6 30 c15 70 28 65 -170 65 l-179 0 -17 -92z"/>
<path d="M2935 928 c-29 -156 -32 -164 -66 -178 l-31 -13 27 -21 26 -21 -21
-105 c-11 -58 -20 -110 -20 -117 0 -9 46 -12 184 -12 l184 1 12 45 c6 25 9 47
6 50 -2 2 -49 4 -105 4 -55 0 -103 5 -107 10 -9 15 16 109 29 110 7 1 48 1 92
0 44 -1 85 2 92 6 6 4 13 28 15 53 l3 45 -94 2 c-51 1 -95 3 -96 5 -2 2 2 30
9 63 l12 60 104 5 105 5 6 30 c15 70 28 65 -170 65 l-179 0 -17 -92z"/>
<path d="M3451 984 c-6 -20 -16 -71 -22 -113 -12 -79 -39 -121 -77 -121 -11 0
-4 -8 16 -20 29 -18 33 -25 27 -48 -13 -50 -35 -157 -35 -170 0 -7 6 -10 13
-7 6 4 4 0 -7 -9 -10 -8 -15 -20 -11 -26 7 -11 49 -9 61 3 10 9 26 9 21 0 -8
-13 185 -15 238 -3 56 13 104 48 83 62 -10 6 -9 8 3 8 24 0 57 157 40 188 -6
12 -16 22 -21 22 -18 0 -10 19 10 25 29 9 48 53 55 126 4 45 2 69 -7 80 -23
28 -87 39 -235 39 l-142 0 -10 -36z m69 -48 c0 -3 -7 -3 -15 0 -8 4 -15 13
-15 21 0 12 2 12 15 -1 8 -8 15 -17 15 -20z m166 -73 c-3 -25 -8 -48 -10 -50
-11 -12 -65 -19 -84 -12 -20 8 -23 14 -17 41 14 69 13 68 67 68 l51 0 -7 -47z
m54 43 c0 -3 -4 -8 -10 -11 -5 -3 -10 -1 -10 4 0 6 5 11 10 11 6 0 10 -2 10
-4z m57 -2 c-3 -3 -12 -4 -19 -1 -8 3 -5 6 6 6 11 1 17 -2 13 -5z m-307 -14
c0 -5 -2 -10 -4 -10 -3 0 -8 5 -11 10 -3 6 -1 10 4 10 6 0 11 -4 11 -10z m40
-20 c0 -5 -4 -10 -10 -10 -5 0 -10 5 -10 10 0 6 5 10 10 10 6 0 10 -4 10 -10z
m250 -4 c0 -2 -7 -6 -15 -10 -8 -3 -15 -1 -15 4 0 6 7 10 15 10 8 0 15 -2 15
-4z m-245 -56 c3 -5 1 -10 -4 -10 -6 0 -11 5 -11 10 0 6 2 10 4 10 3 0 8 -4
11 -10z m-65 -9 c0 -5 -9 -7 -20 -4 -11 3 -20 7 -20 9 0 2 9 4 20 4 11 0 20
-4 20 -9z m25 -28 c-5 -10 -7 -22 -6 -26 1 -4 -8 -3 -19 3 -22 12 -27 21 -8
18 7 -2 14 8 16 21 3 16 7 20 14 13 6 -6 7 -18 3 -29z m95 -7 c0 -2 -7 -9 -15
-16 -13 -11 -14 -10 -9 4 5 14 24 23 24 12z m-80 -63 c0 -30 -9 -27 -15 6 -2
11 0 21 6 21 5 0 9 -12 9 -27z m75 17 c-3 -5 -12 -7 -20 -3 -21 7 -19 13 6 13
11 0 18 -4 14 -10z m65 -61 c0 -16 -7 -45 -14 -64 -13 -30 -20 -35 -48 -36
-18 0 -43 -2 -55 -3 -15 -2 -20 1 -14 8 5 6 12 37 16 68 8 62 15 67 83 59 28
-3 32 -7 32 -32z m140 -9 c0 -5 -5 -10 -11 -10 -5 0 -7 5 -4 10 3 6 8 10 11
10 2 0 4 -4 4 -10z m-260 -10 c0 -5 -2 -10 -4 -10 -3 0 -8 5 -11 10 -3 6 -1
10 4 10 6 0 11 -4 11 -10z m-67 -115 c-3 -9 -8 -14 -10 -11 -3 3 -2 9 2 15 9
16 15 13 8 -4z m47 -5 c0 -5 -4 -10 -10 -10 -5 0 -10 5 -10 10 0 6 5 10 10 10
6 0 10 -4 10 -10z m207 4 c-3 -3 -12 -4 -19 -1 -8 3 -5 6 6 6 11 1 17 -2 13
-5z m-187 -23 c0 -5 -7 -12 -16 -15 -14 -5 -15 -4 -4 9 14 17 20 19 20 6z m40
-1 c0 -5 -7 -10 -15 -10 -8 0 -15 5 -15 10 0 6 7 10 15 10 8 0 15 -4 15 -10z"/>
<path d="M3972 971 c-6 -25 -16 -79 -23 -119 -12 -69 -15 -74 -48 -92 -20 -11
-31 -19 -25 -20 5 0 20 -9 31 -19 20 -19 20 -21 5 -85 -15 -61 -15 -68 1 -101
11 -24 29 -41 53 -51 45 -19 127 -29 151 -19 10 4 29 9 43 10 69 7 139 76 146
143 2 21 8 51 14 66 5 15 7 32 4 38 -4 7 -2 8 4 4 6 -4 21 -2 33 5 l22 11 -21
17 c-22 17 -29 38 -19 61 11 25 36 184 31 192 -6 10 -115 10 -130 0 -9 -6 -28
-87 -48 -206 -3 -16 -10 -53 -16 -81 -6 -29 -10 -56 -9 -61 2 -9 -2 -23 -21
-71 -13 -31 -53 -39 -93 -19 -17 8 -26 16 -19 16 7 0 12 8 10 18 -1 9 0 22 4
27 4 6 21 87 38 180 17 94 33 177 36 186 4 14 -7 16 -70 16 l-75 1 -9 -47z
m95 -37 c-3 -3 -12 -4 -19 -1 -8 3 -5 6 6 6 11 1 17 -2 13 -5z m229 -19 c-8
-8 -18 -15 -22 -15 -3 0 -1 7 6 15 7 8 17 15 22 15 5 0 3 -7 -6 -15z m-233
-62 c-7 -2 -19 -2 -25 0 -7 3 -2 5 12 5 14 0 19 -2 13 -5z m-93 -73 c0 -5 -4
-10 -10 -10 -5 0 -10 5 -10 10 0 6 5 10 10 10 6 0 10 -4 10 -10z m277 -55 c0
-8 -7 -15 -15 -15 -12 0 -12 3 -2 15 7 8 13 15 15 15 1 0 2 -7 2 -15z m20
-100 c-7 -7 -19 -10 -27 -7 -12 5 -12 7 3 10 9 2 17 11 17 20 0 14 2 14 9 3 6
-9 5 -19 -2 -26z m3 -50 c14 -16 10 -18 -14 -9 -9 3 -16 10 -16 15 0 14 16 11
30 -6z m-318 -10 c0 -5 -5 -11 -11 -13 -6 -2 -11 4 -11 13 0 9 5 15 11 13 6
-2 11 -8 11 -13z m53 -5 c3 -5 1 -10 -4 -10 -6 0 -11 5 -11 10 0 6 2 10 4 10
3 0 8 -4 11 -10z m-15 -24 c0 -2 -7 -9 -15 -16 -13 -11 -14 -10 -9 4 5 14 24
23 24 12z m230 -16 c0 -5 -5 -10 -11 -10 -5 0 -7 5 -4 10 3 6 8 10 11 10 2 0
4 -4 4 -10z"/>
<path d="M4612 1001 c-81 -28 -112 -66 -127 -156 -10 -65 -15 -75 -48 -95
l-30 -19 27 -12 c16 -8 25 -18 22 -26 -3 -7 -8 -44 -11 -82 -6 -63 -4 -70 20
-99 31 -37 94 -53 160 -41 26 5 50 11 55 14 5 3 11 1 15 -5 3 -5 28 -10 55
-10 38 0 50 4 54 18 6 19 46 241 46 254 0 4 -40 8 -89 8 l-89 0 -7 -36 c-5
-28 -2 -39 11 -48 13 -10 15 -20 10 -42 -15 -60 -73 -87 -96 -44 -6 11 -16 18
-23 15 -7 -4 -5 -1 4 7 14 12 45 141 52 223 2 17 10 44 18 60 12 25 20 30 49
30 33 0 35 -2 38 -37 l3 -38 70 0 69 0 0 49 c0 64 -31 104 -94 120 -62 15
-102 13 -164 -8z m26 -46 c-3 -3 -9 2 -12 12 -6 14 -5 15 5 6 7 -7 10 -15 7
-18z m-34 -10 c-4 -8 -9 -15 -13 -15 -4 0 -8 7 -8 15 0 8 6 15 13 15 8 0 11
-6 8 -15z m-124 -215 c0 -5 -5 -10 -11 -10 -5 0 -7 5 -4 10 3 6 8 10 11 10 2
0 4 -4 4 -10z m53 -37 c-3 -7 -10 -13 -16 -13 -8 0 -8 3 0 11 6 6 9 19 6 28
-4 13 -3 13 5 2 6 -8 8 -20 5 -28z m48 -151 c-7 -2 -18 1 -23 6 -8 8 -4 9 13
5 13 -4 18 -8 10 -11z m96 2 c-3 -3 -12 -4 -19 -1 -8 3 -5 6 6 6 11 1 17 -2
13 -5z m-143 -42 c3 -5 -1 -9 -9 -9 -8 0 -12 4 -9 9 3 4 7 8 9 8 2 0 6 -4 9
-8z"/>
<path d="M1186 579 c-51 -162 -210 -310 -376 -348 -58 -13 -192 -13 -250 0
-70 16 -163 65 -219 115 -41 37 -55 44 -64 35 -9 -10 -1 -23 37 -58 93 -84
245 -143 371 -143 252 0 490 188 549 433 5 22 3 27 -11 27 -13 0 -23 -17 -37
-61z"/>
</g>
</svg>
