<svg width="122" height="21" viewBox="0 0 122 21" fill="none" xmlns="http://www.w3.org/2000/svg">
<path d="M0.672 13.28C0.672 11.904 0.928 10.696 1.44 9.656C1.968 8.616 2.68 7.816 3.576 7.256C4.472 6.696 5.472 6.416 6.576 6.416C7.52 6.416 8.344 6.608 9.048 6.992C9.768 7.376 10.32 7.88 10.704 8.504V6.608H14.808V20H10.704V18.104C10.304 18.728 9.744 19.232 9.024 19.616C8.32 20 7.496 20.192 6.552 20.192C5.464 20.192 4.472 19.912 3.576 19.352C2.68 18.776 1.968 17.968 1.44 16.928C0.928 15.872 0.672 14.656 0.672 13.28ZM10.704 13.304C10.704 12.28 10.416 11.472 9.84 10.88C9.28 10.288 8.592 9.992 7.776 9.992C6.96 9.992 6.264 10.288 5.688 10.88C5.128 11.456 4.848 12.256 4.848 13.28C4.848 14.304 5.128 15.12 5.688 15.728C6.264 16.32 6.96 16.616 7.776 16.616C8.592 16.616 9.28 16.32 9.84 15.728C10.416 15.136 10.704 14.328 10.704 13.304ZM16.9611 13.28C16.9611 11.904 17.2171 10.696 17.7291 9.656C18.2571 8.616 18.9691 7.816 19.8651 7.256C20.7611 6.696 21.7611 6.416 22.8651 6.416C23.7451 6.416 24.5451 6.6 25.2651 6.968C26.0011 7.336 26.5771 7.832 26.9931 8.456V2.24H31.0971V20H26.9931V18.08C26.6091 18.72 26.0571 19.232 25.3371 19.616C24.6331 20 23.8091 20.192 22.8651 20.192C21.7611 20.192 20.7611 19.912 19.8651 19.352C18.9691 18.776 18.2571 17.968 17.7291 16.928C17.2171 15.872 16.9611 14.656 16.9611 13.28ZM26.9931 13.304C26.9931 12.28 26.7051 11.472 26.1291 10.88C25.5691 10.288 24.8811 9.992 24.0651 9.992C23.2491 9.992 22.5531 10.288 21.9771 10.88C21.4171 11.456 21.1371 12.256 21.1371 13.28C21.1371 14.304 21.4171 15.12 21.9771 15.728C22.5531 16.32 23.2491 16.616 24.0651 16.616C24.8811 16.616 25.5691 16.32 26.1291 15.728C26.7051 15.136 26.9931 14.328 26.9931 13.304ZM51.1541 6.464C52.8181 6.464 54.1381 6.968 55.1141 7.976C56.1061 8.984 56.6021 10.384 56.6021 12.176V20H52.5221V12.728C52.5221 11.864 52.2901 11.2 51.8261 10.736C51.3781 10.256 50.7541 10.016 49.9541 10.016C49.1541 10.016 48.5221 10.256 48.0581 10.736C47.6101 11.2 47.3861 11.864 47.3861 12.728V20H43.3061V12.728C43.3061 11.864 43.0741 11.2 42.6101 10.736C42.1621 10.256 41.5381 10.016 40.7381 10.016C39.9381 10.016 39.3061 10.256 38.8421 10.736C38.3941 11.2 38.1701 11.864 38.1701 12.728V20H34.0661V6.608H38.1701V8.288C38.5861 7.728 39.1301 7.288 39.8021 6.968C40.4741 6.632 41.2341 6.464 42.0821 6.464C43.0901 6.464 43.9861 6.68 44.7701 7.112C45.5701 7.544 46.1941 8.16 46.6421 8.96C47.1061 8.224 47.7381 7.624 48.5381 7.16C49.3381 6.696 50.2101 6.464 51.1541 6.464ZM61.5364 5.216C60.8164 5.216 60.2244 5.008 59.7604 4.592C59.3124 4.16 59.0884 3.632 59.0884 3.008C59.0884 2.368 59.3124 1.84 59.7604 1.424C60.2244 0.991999 60.8164 0.775999 61.5364 0.775999C62.2404 0.775999 62.8164 0.991999 63.2644 1.424C63.7284 1.84 63.9604 2.368 63.9604 3.008C63.9604 3.632 63.7284 4.16 63.2644 4.592C62.8164 5.008 62.2404 5.216 61.5364 5.216ZM63.5764 6.608V20H59.4724V6.608H63.5764ZM74.7105 6.464C76.2785 6.464 77.5265 6.976 78.4545 8C79.3985 9.008 79.8705 10.4 79.8705 12.176V20H75.7905V12.728C75.7905 11.832 75.5585 11.136 75.0945 10.64C74.6305 10.144 74.0065 9.896 73.2225 9.896C72.4385 9.896 71.8145 10.144 71.3505 10.64C70.8865 11.136 70.6545 11.832 70.6545 12.728V20H66.5505V6.608H70.6545V8.384C71.0705 7.792 71.6305 7.328 72.3345 6.992C73.0385 6.64 73.8305 6.464 74.7105 6.464ZM95.5624 8.576C95.5624 9.552 95.3384 10.448 94.8904 11.264C94.4424 12.064 93.7544 12.712 92.8264 13.208C91.8984 13.704 90.7464 13.952 89.3704 13.952H86.8264V20H82.7224V3.152H89.3704C90.7144 3.152 91.8504 3.384 92.7784 3.848C93.7064 4.312 94.4024 4.952 94.8664 5.768C95.3304 6.584 95.5624 7.52 95.5624 8.576ZM89.0584 10.688C89.8424 10.688 90.4264 10.504 90.8104 10.136C91.1944 9.768 91.3864 9.248 91.3864 8.576C91.3864 7.904 91.1944 7.384 90.8104 7.016C90.4264 6.648 89.8424 6.464 89.0584 6.464H86.8264V10.688H89.0584ZM101.803 8.84C102.283 8.104 102.883 7.528 103.603 7.112C104.323 6.68 105.123 6.464 106.003 6.464V10.808H104.875C103.851 10.808 103.083 11.032 102.571 11.48C102.059 11.912 101.803 12.68 101.803 13.784V20H97.6989V6.608H101.803V8.84ZM114.061 20.192C112.749 20.192 111.565 19.912 110.509 19.352C109.469 18.792 108.645 17.992 108.037 16.952C107.445 15.912 107.149 14.696 107.149 13.304C107.149 11.928 107.453 10.72 108.061 9.68C108.669 8.624 109.501 7.816 110.557 7.256C111.613 6.696 112.797 6.416 114.109 6.416C115.421 6.416 116.605 6.696 117.661 7.256C118.717 7.816 119.549 8.624 120.157 9.68C120.765 10.72 121.069 11.928 121.069 13.304C121.069 14.68 120.757 15.896 120.133 16.952C119.525 17.992 118.685 18.792 117.613 19.352C116.557 19.912 115.373 20.192 114.061 20.192ZM114.061 16.64C114.845 16.64 115.509 16.352 116.053 15.776C116.613 15.2 116.893 14.376 116.893 13.304C116.893 12.232 116.621 11.408 116.077 10.832C115.549 10.256 114.893 9.968 114.109 9.968C113.309 9.968 112.645 10.256 112.117 10.832C111.589 11.392 111.325 12.216 111.325 13.304C111.325 14.376 111.581 15.2 112.093 15.776C112.621 16.352 113.277 16.64 114.061 16.64Z" fill="white"/>
</svg>
